<?xml version="1.0" encoding="utf-8"?>
<!-- Generator: Adobe Illustrator 23.1.1, SVG Export Plug-In . SVG Version: 6.00 Build 0)  -->
<svg version="1.1" id="Слой_1" xmlns="http://www.w3.org/2000/svg" xmlns:xlink="http://www.w3.org/1999/xlink" x="0px" y="0px"
	 width="150px" height="150px" viewBox="0 0 150 150" style="enable-background:new 0 0 150 150;" xml:space="preserve">
<style type="text/css">
	.st0{fill:#8CF8F9;}
	.st1{fill:#DD4E84;}
	.st2{fill:none;stroke:#DD4E83;stroke-width:1.4107;stroke-miterlimit:10;}
	.st3{fill:none;stroke:#DD4E83;stroke-width:1.5878;stroke-miterlimit:10;}
	.st4{fill:#DD4E83;}
	.st5{fill:none;stroke:#DD4E83;stroke-width:0.4764;stroke-miterlimit:10;}
	.st6{fill:none;stroke:#DD4E83;stroke-width:0.5444;stroke-miterlimit:10;}
	.st7{fill:none;}
	.st8{fill:none;stroke:#DD4E83;stroke-width:1.3422;stroke-miterlimit:10;}
</style>
<g>
	<path class="st0" d="M102.7,33.41c19.38,12.98,24.59,39.31,11.62,58.69s-39.31,24.59-58.69,11.62S31.03,64.41,44.01,45.03
		S83.32,20.44,102.7,33.41z M57.2,101.37c18.09,12.11,42.65,7.25,54.76-10.84s7.25-42.65-10.84-54.76s-42.65-7.25-54.76,10.84
		S39.11,89.26,57.2,101.37z"/>
</g>
<g>
	<path class="st1" d="M34.07,38.37c7.41-11.06,18.18-18.53,30.04-21.95l15.05,52.14l-53.95,5.95
		C23.86,62.24,26.66,49.44,34.07,38.37z"/>
</g>
<g>
	<path class="st2" d="M103.8,64.9l4.17,1.71l-0.3,1.82c0,0,4.26,3.18,1.91,5.11c-1.43,1.18-2.98,1.67-3.97,1.89
		c-0.79,0.17-1.81,0.25-1.81,0.25"/>
	<path class="st2" d="M91.26,73.88l1.57,2.75l2.36-1.42l1.41-0.85c0.12-0.07,0.27-0.05,0.37,0.04l0.06,0.05
		c0.87,0.8,1.85,1.14,2.72,1.38l-0.67,4.34c0,0,2.72,7.66,6.72,1.63"/>
	<path class="st3" d="M93.42,69.06c-2.02-3.55,3.43-9.89,3.43-9.89l3.16,1.5l3.1-1.93c0,0,2.98,2.53,2.06,6.75"/>
	<path class="st4" d="M97.62,71.91l1.74-0.47c0,0-0.4-1.1-0.75-2.59c-1.31-5.58,2.42-5.86,5.94-4.37c1.49,0.77,0.96-2.02,0.96-2.02
		l-3.02-3.33l-3.34,1.59l-2.67-1.09l-3.92,8.17l4.66,2.79L97.62,71.91z"/>
	<path class="st5" d="M101.91,69.95c0.12-1.44,1.65-2.16,2.84-1.85C104.26,69.52,103.05,70.12,101.91,69.95z"/>
	<path class="st4" d="M103.03,68.3c-0.07,0.44,0.2,1.08,0.82,1c0.54-0.32,0.74-1.11,0.74-1.11S103.58,67.9,103.03,68.3z"/>
	<path class="st2" d="M95.32,75.13l2.66-1.62l1.63-0.98c-0.52-0.45-2.31-1.98-2.98-2.53c-1.86-1.53-2.47-1.4-4.25-0.41l-4.96,3.02
		l1.57,2.72l5.93-3.57"/>
	<path class="st5" d="M100.45,69.93c0-0.67,0.23-1.47,0.73-2.14"/>
	<path class="st6" d="M107.59,71.13c-0.43,0.27-1.01,0.57-1.57,0.7"/>
	<path class="st2" d="M109.4,79.63c-1.51-0.31-2.84-0.55-4.11-0.71l-0.05-0.13l1.86-3.82"/>
	<line class="st2" x1="110.85" y1="79.95" x2="112.08" y2="80.23"/>
	<path class="st4" d="M57.4,109.69c0.99,1.1,5.32,3.47,7.27,1.79c0.67-0.98,1.18-2.57,0.2-2.24c-0.98,0.33-6.38-2.75-6.67-1.54
		C57.92,108.91,57.4,109.69,57.4,109.69z"/>
	<path class="st2" d="M99.24,78.83c-2.64,0.25-8.65,1.07-13.14,2.19c0,0-14.71,6.32-17.81,9.25s-10.2,13.95-10.46,15.22
		c-0.26,1.27-0.09,0.55,1.03,2.78l3.87,1.73c0,0,1.88,0.92,3.88-1.43c2-2.35,8.3-10.93,8.3-10.93s6.33-4.26,14.05-3.59"/>
	<line class="st2" x1="90.19" y1="94.15" x2="91.33" y2="94.31"/>
	<path class="st2" d="M63.19,111.33c-0.61,2.32,0.84,3.66,0.3,4.3c-0.54,0.64-3.53,1.08-5.94-0.48s0.63-5.34,0.63-5.34"/>
	<path class="st7" d="M56.53,113.61"/>
	<polyline class="st6" points="67.32,91.46 51.07,84.98 42.3,106.94 56.42,112.58 	"/>
	<polyline class="st6" points="63.65,115.46 73.92,119.56 82.69,97.6 78.13,95.78 	"/>
	<path class="st2" d="M77.38,110.9c2.95,1.11,7.63,3.83,14.14-2.91c6.51-6.74,22.11-17.68,28.94-27.04
		c6.83-9.35,13.62-14.18,13.57-17.9"/>
	<path class="st2" d="M107.84,79.33c5.99-6.51,10.42-9.41,13.86-14.27c3.44-4.85,6.65-6.74,7.69-6.77"/>
	<path class="st4" d="M129.04,57.33c-0.91,0.91-0.66,2.04,1.42,3.85c2.08,1.8,2.7,2.09,3.64,2.11c0.94,0.02,1.43-0.86,1.44-1.41
		c0.01-0.56-0.21-0.87-3-3.24C129.76,56.25,129.86,56.51,129.04,57.33z"/>
	<path class="st2" d="M22.97,107.94c0,0-2.59-1.36-3.73-1.16c-1.14,0.2-2.27,1.61-3.44,3.81c-1.17,2.2-7.84,9.51-4.99,10.06
		c2.85,0.55,5.98-4.7,12.67-8.05"/>
	<path class="st4" d="M23.23,106.85c-1.08,0.69-2.8,4.34-1.35,8.71c3.89-1.11,15.46-1.25,15.46-1.25s10.38,5.15,14.78,6
		s15.61-3.22,15.61-3.22l-3.93-1.26c0,0-2.08,1.1-3.56,0.9c-1.48-0.2-3.27-2.13-3.44-2.89c-0.16-0.76-0.64-1.37-1.27-1.62
		c-0.63-0.25-12.88-5.14-12.88-5.14l-0.16-0.59l0.87-2.17C43.35,104.31,35.9,103.97,23.23,106.85z"/>
	<path class="st4" d="M76.15,113.97l4.62-1.46c0,0-2.94-1.26-3.25-1.22C77.2,111.33,76.15,113.97,76.15,113.97z"/>
	<path class="st4" d="M50.84,85.57l0.52-0.48l15.39,6.14l8.95-5.39c0,0-1.37-0.41,6.25-2.74c7.62-2.34,11.82,2.46,15.09,2.76
		c3.27,0.3,4.9-1.58,4.9-1.58l-3.09-3.97l0.27-1.83l-6.05,0.91c0,0-10.03-7.16-15.9-1.29c-6.1,0.8-10.37,3.83-11.62,6.42
		c-7.79,0.68-14.14-6.44-21.76,3.35c-2.23,3.06-2.23,6.67-2.23,6.67l0.9,0.11c0.32-1.81,3.12-1.42,4.61,0.32"/>
	<g>
		<path class="st8" d="M133.69,51.4c-0.33-2-2.86-2.49-2.86-2.49s-0.34,0.21-0.65,0.87c0.44,0.81,1.94,4.42,1.94,4.42l-0.28,2.6
			l-0.98,1.81"/>
		<path class="st8" d="M139.64,54.27l-2.76,1.31c0,0-1.37-1.57-2.89-2.8c-1.52-1.22,0.76-2.68,3.01-3.29c1-0.27,3.33,2.63,2.83,4.19
			c-0.5,1.56-1.37,4.43-4.38,6.21l-2.46,1.32"/>
	</g>
</g>
<g>
	<path class="st0" d="M64.11,16.43l15.05,52.14L41.89,29.11c3.13-2.97,6.54-5.75,10.5-7.9C56.34,19.05,59.92,17.45,64.11,16.43z"/>
</g>
</svg>
