<?xml version="1.0" encoding="utf-8"?>
<!-- Generator: Adobe Illustrator 23.1.1, SVG Export Plug-In . SVG Version: 6.00 Build 0)  -->
<svg version="1.1" id="Слой_1" xmlns="http://www.w3.org/2000/svg" xmlns:xlink="http://www.w3.org/1999/xlink" x="0px" y="0px"
	 width="300px" height="300px" viewBox="0 0 300 300" style="enable-background:new 0 0 300 300;" xml:space="preserve">
<style type="text/css">
	.st0{opacity:0.82;fill:#8BF7F8;}
	.st1{fill:none;stroke:#DD4E83;stroke-width:4.2442;stroke-miterlimit:10;}
	.st2{fill:none;stroke:#DD4E83;stroke-width:4.777;stroke-miterlimit:10;}
	.st3{fill:#DD4E83;}
	.st4{fill:none;stroke:#DD4E83;stroke-width:1.4331;stroke-miterlimit:10;}
	.st5{fill:none;stroke:#DD4E83;stroke-width:1.6379;stroke-miterlimit:10;}
	.st6{fill:none;}
	.st7{fill:none;stroke:#DD4E83;stroke-width:4.038;stroke-miterlimit:10;}
</style>
<polygon class="st0" points="205.12,203.89 52.12,203.89 52.12,182.27 209.01,182.27 "/>
<polygon class="st0" points="285.22,101.04 160.09,101.04 160.09,86.22 288.41,86.22 "/>
<g>
	<path class="st1" d="M179.82,80.35l12.56,5.14l-0.92,5.48c0,0,12.82,9.56,5.76,15.38c-4.29,3.54-8.96,5.03-11.96,5.69
		c-2.37,0.52-5.44,0.75-5.44,0.75"/>
	<path class="st1" d="M142.08,107.37l4.74,8.28l7.1-4.27l4.24-2.55c0.36-0.2,0.81-0.15,1.12,0.13l0.19,0.16
		c2.62,2.4,5.56,3.44,8.18,4.16l-2.01,13.07c0,0,8.19,23.05,20.21,4.91"/>
	<path class="st2" d="M148.6,92.87c-6.06-10.7,10.33-29.74,10.33-29.74l9.51,4.5l9.33-5.8c0,0,8.98,7.62,6.19,20.31"/>
	<path class="st3" d="M161.24,101.43l5.22-1.41c0,0-1.2-3.31-2.25-7.78c-3.94-16.78,7.28-17.62,17.88-13.15
		c4.49,2.31,2.88-6.07,2.88-6.07l-9.08-10.02l-10.06,4.79l-8.02-3.28l-11.79,24.58l14.01,8.4L161.24,101.43z"/>
	<path class="st4" d="M174.12,95.54c0.37-4.34,4.97-6.48,8.55-5.57C181.21,94.27,177.56,96.05,174.12,95.54z"/>
	<path class="st3" d="M177.51,90.6c-0.2,1.32,0.6,3.24,2.48,3.01c1.63-0.97,2.23-3.35,2.23-3.35S179.16,89.38,177.51,90.6z"/>
	<path class="st1" d="M154.31,111.13l8.01-4.86l4.9-2.94c-1.55-1.35-6.96-5.96-8.96-7.6c-5.59-4.6-7.42-4.2-12.78-1.23l-14.92,9.08
		l4.71,8.18l17.84-10.73"/>
	<path class="st4" d="M169.73,95.48c-0.01-2.02,0.69-4.43,2.19-6.44"/>
	<path class="st5" d="M191.23,99.09c-1.29,0.83-3.04,1.71-4.72,2.1"/>
	<path class="st1" d="M196.66,124.68c-4.55-0.92-8.55-1.65-12.36-2.13l-0.14-0.39l5.6-11.48"/>
	<line class="st1" x1="201.03" y1="125.63" x2="204.72" y2="126.48"/>
	<path class="st3" d="M40.23,215.1c2.99,3.31,16.01,10.44,21.88,5.39c2-2.95,3.55-7.72,0.6-6.74s-19.19-8.27-20.05-4.63
		C41.79,212.75,40.23,215.1,40.23,215.1z"/>
	<path class="st1" d="M166.1,122.26c-7.94,0.76-26.02,3.2-39.53,6.58c0,0-44.25,19-53.58,27.83c-9.33,8.83-30.67,41.97-31.47,45.8
		c-0.79,3.83-0.27,1.65,3.09,8.36l11.64,5.2c0,0,5.66,2.77,11.67-4.31c6-7.08,24.98-32.87,24.98-32.87s19.05-12.83,42.26-10.81"/>
	<line class="st1" x1="138.87" y1="168.36" x2="142.31" y2="168.85"/>
	<path class="st1" d="M57.63,220.05c-1.84,6.98,2.52,11,0.91,12.92s-10.62,3.26-17.88-1.46c-7.27-4.72,1.91-16.06,1.91-16.06"/>
	<path class="st6" d="M37.61,226.89"/>
	<polyline class="st5" points="70.07,160.27 21.19,140.76 -5.19,206.83 37.28,223.79 	"/>
	<polyline class="st5" points="59.03,232.48 89.92,244.81 116.3,178.73 102.58,173.25 	"/>
	<path class="st1" d="M100.32,218.74c8.89,3.35,22.96,11.52,42.54-8.75s66.52-53.2,87.06-81.34S270.9,86,270.73,74.8"/>
	<path class="st1" d="M191.99,123.77c18.01-19.58,31.36-28.32,41.71-42.92c10.35-14.6,20.02-20.28,23.13-20.38"/>
	<path class="st3" d="M255.75,57.57c-2.74,2.73-1.98,6.15,4.27,11.57c6.26,5.42,8.12,6.28,10.96,6.34c2.84,0.06,4.29-2.58,4.34-4.25
		c0.04-1.67-0.64-2.63-9.02-9.76C257.92,54.34,258.21,55.11,255.75,57.57z"/>
	<path class="st1" d="M-63.36,209.84c0,0-7.8-4.08-11.23-3.47c-3.42,0.6-6.83,4.84-10.35,11.45c-3.53,6.61-23.57,28.6-15,30.27
		s17.98-14.13,38.12-24.22"/>
	<path class="st3" d="M-62.58,206.57c-3.26,2.09-8.43,13.06-4.07,26.2c11.7-3.33,46.5-3.77,46.5-3.77s31.24,15.48,44.46,18.06
		c13.22,2.57,46.96-9.7,46.96-9.7l-11.82-3.78c0,0-6.25,3.3-10.7,2.71c-4.45-0.59-9.85-6.4-10.34-8.69s-1.91-4.12-3.81-4.87
		s-38.76-15.47-38.76-15.47l-0.49-1.79l2.61-6.53C-2.04,198.93-24.47,197.9-62.58,206.57z"/>
	<path class="st3" d="M96.64,227.98l13.9-4.39c0,0-8.83-3.8-9.78-3.68C99.81,220.04,96.64,227.98,96.64,227.98z"/>
	<path class="st3" d="M20.48,142.54l1.55-1.45l46.31,18.49l26.94-16.21c0,0-4.11-1.22,18.82-8.26s35.55,7.41,45.39,8.31
		s14.73-4.75,14.73-4.75l-9.3-11.95l0.82-5.5l-18.19,2.74c0,0-30.17-21.56-47.83-3.87c-18.34,2.4-31.21,11.53-34.96,19.32
		c-23.45,2.03-42.55-19.39-65.47,10.08c-6.71,9.19-6.7,20.07-6.7,20.07l2.72,0.33c0.97-5.44,9.4-4.26,13.88,0.96"/>
	<g>
		<path class="st7" d="M269.73,39.74c-1-6.01-8.6-7.49-8.6-7.49s-1.02,0.64-1.95,2.63c1.33,2.44,5.85,13.31,5.85,13.31l-0.86,7.81
			l-2.95,5.46"/>
		<path class="st7" d="M287.63,48.39l-8.31,3.93c0,0-4.11-4.73-8.69-8.41c-4.57-3.68,2.28-8.05,9.05-9.9
			c3-0.82,10.01,7.91,8.52,12.61s-4.12,13.32-13.16,18.67l-7.4,3.96"/>
	</g>
</g>
</svg>
