<?xml version="1.0" encoding="utf-8"?>
<!-- Generator: Adobe Illustrator 23.1.1, SVG Export Plug-In . SVG Version: 6.00 Build 0)  -->
<svg version="1.1" id="Слой_1" xmlns="http://www.w3.org/2000/svg" xmlns:xlink="http://www.w3.org/1999/xlink" x="0px" y="0px"
	 width="133px" height="130px" viewBox="0 0 133 130" style="enable-background:new 0 0 133 130;" xml:space="preserve">
<style type="text/css">
	.st0{fill:#00F9F9;}
	.st1{fill:#FFE97E;}
	.st2{fill:#FF4D87;}
	.st3{fill:none;stroke:#FF4D87;stroke-width:0.3963;stroke-miterlimit:10;}
	.st4{fill:none;stroke:#FF4D87;stroke-width:0.6557;stroke-miterlimit:10;}
	.st5{fill:none;stroke:#FF4D87;stroke-width:0.675;stroke-miterlimit:10;}
</style>
<g>
	<path class="st0" d="M82.38,27.03c0-0.06,0.01-0.11,0.01-0.17c0.04-4.55-3.62-8.28-8.17-8.32c-4.55-0.04-8.28,3.62-8.32,8.17
		c0,0.06,0.01,0.11,0.01,0.17L82.38,27.03z"/>
	<path class="st1" d="M105.7,75.56c0.08,0,0.15,0.01,0.23,0.01c6.18,0.06,11.23-4.91,11.28-11.08c0.06-6.18-4.91-11.23-11.08-11.28
		c-0.08,0-0.16,0.01-0.23,0.01L105.7,75.56z"/>
	<path class="st2" d="M105.35,44.02c8.86,13.97,7.8,31.4-1.31,44.05l-5.4-8.52c5.08-9.32,5.09-21.04-0.99-30.64
		c-6.08-9.6-16.69-14.6-27.28-13.98l-5.4-8.52C80.28,23.55,96.49,30.04,105.35,44.02z"/>
	<path class="st0" d="M45.19,50.66l28.28,44.62c-10.6,0.62-21.2-4.38-27.28-13.98S40.11,59.98,45.19,50.66z"/>
	<path class="st0" d="M97.64,48.9c6.08,9.6,6.08,21.32,0.99,30.64l-3.96-6.25c2.46-6.75,1.87-14.53-2.27-21.07
		c-4.14-6.54-10.93-10.39-18.08-11.05l-3.96-6.25C80.95,34.3,91.56,39.3,97.64,48.9z"/>
	<path class="st2" d="M93.12,73.88l6.56,10.36c-2.64,4.13-6.2,7.77-10.62,10.57c-4.42,2.8-9.23,4.47-14.09,5.09l-6.56-10.36
		c5.09,0.47,10.37-0.68,15.02-3.63C88.08,82.97,91.37,78.69,93.12,73.88z"/>
	<path class="st2" d="M64.42,27.73l6.56,10.36c-5.09-0.47-10.37,0.68-15.02,3.63c-4.65,2.95-7.94,7.23-9.69,12.03l-6.56-10.36
		c2.64-4.13,6.2-7.77,10.62-10.57C54.74,30.02,59.55,28.35,64.42,27.73z"/>
	<path class="st1" d="M72.76,41.77l2.78,4.38c-5.17-1.31-10.86-0.58-15.73,2.51c-1.28,0.81-2.43,1.74-3.46,2.76l-1.59-3.8
		c0.92-0.81,1.91-1.55,2.98-2.23C62.4,42.45,67.67,41.3,72.76,41.77z"/>
	<path class="st0" d="M90.34,69.5l2.78,4.38c-1.75,4.8-5.04,9.08-9.69,12.03c-3.47,2.2-7.3,3.4-11.13,3.67l-1.59-3.8
		c3.65-0.02,7.34-1.03,10.65-3.13C86.23,79.57,89.32,74.74,90.34,69.5z"/>
	<path class="st2" d="M75.54,62.82l20.2-34.29c1.04,0.51,2.13,1.12,3.22,1.85c5.38,3.61,8.41,8.45,10.06,11.84L75.54,62.82z"/>
	<polygon class="st1" points="49.79,38.1 49.79,27.03 27.79,27.03 27.79,38.1 46.59,38.1 49.79,43.26 	"/>
	<rect x="29.88" y="31.89" class="st0" width="17.51" height="2.02"/>
	<path class="st2" d="M43.96,110.31c-0.89-1.66-5.01-2.69-5.01-2.69l-4.21-0.07c0,0-0.34,1.54-0.34,2.76
		C42.67,110.31,43.96,110.31,43.96,110.31z"/>
	<path class="st2" d="M25.2,110.05c-0.21-1.6-1.87-2.98-1.87-2.98l-3.13-1.47c0,0-1.13,1.7-1.41,2.76
		C24.34,109.82,25.2,110.05,25.2,110.05z"/>
	<path class="st3" d="M51.05,55.1c0.17-0.32,0.43-1.07-0.02-1.98c-0.45-0.9-0.87-1.3-0.87-1.3c0.45-0.29,0.91-0.11,1.27,0.53
		c0.17,0.29,0.34,0.6,0.34,0.6l0.05,0.03c0.46-1.14,1.96-2.82,1.96-2.82l0.43,0.33c0,0-0.6,1.1-1.01,1.74
		c-0.41,0.64-0.75,1.11-0.75,1.11c0.34,0.38,0.88,0.73,1.09,0.81c0.29-0.2,0.89-0.75,0.89-0.75s-0.41-0.87-0.97-1.45"/>
	<path class="st2" d="M50.42,54.85l0.4-0.31c0,0,1.67,0.88,1.8,1.36s-0.39,0.82-0.39,0.82L50.42,54.85z"/>
	<path class="st2" d="M37.34,45.68c0.39-0.7,0.39-1.64,0-2.41c-0.4-0.8-1.23-1.44-2.1-1.46c-1.05-0.02-1.21,0.89-2.51,1.14
		c-1.37,0.26-1.85-0.63-2.68-0.24c-0.88,0.41-0.58,1.51-1.62,3.57c-0.62,1.24-1.12,2.22-2.11,2.68c-1.41,0.65-2.26-0.48-4.22-0.16
		c-1.39,0.23-2.9,1.12-3.65,2.43c-1.51,2.67,0.67,6.12,1.22,6.97c1.72,2.71,4.24,3.77,5.68,4.38c1.66,0.7,3.63,1.53,5.84,0.81
		c0.68-0.22,2.49-0.81,3-2.27c0.93-2.65-3.33-5.46-2.35-7.3c0.69-1.29,3.12-0.5,3.81-1.95c0.7-1.46-1.33-3.16-0.49-4.54
		C35.7,46.44,36.75,46.76,37.34,45.68z"/>
	<path class="st4" d="M36.95,44.98c0.21,1.1,1.16,1.57,1.16,1.57l0.07,0.52l-0.52,0.34c0,0,0.7,2.07-0.71,2.48
		c-0.8,0.23-1.44-0.03-1.86-0.2"/>
	<path class="st4" d="M34.79,51.37c0.89,0.32,1.96,0.81,3.07,1.57c2.47,1.7,3.79,3.85,4.43,5.11c0.42-0.29,1.02-0.69,1.77-1.15
		c1.89-1.15,2.85-1.73,3.98-1.9c0.61-0.09,1.59-0.13,2.86,0.31l1.01,1.34c-0.03,0.36-0.1,0.86-0.34,1.4
		c-1.22,2.87-5.24,3.42-6.15,3.52c-2.68,0.28-4.76-0.69-5.64-1.17c-1.73-0.96-2.77-2.22-3.3-2.96"/>
	<path class="st3" d="M53.54,54.14c-0.27,0.24-0.55,0.51-0.84,0.82c-0.64,0.7-0.74,1.28-1.01,1.27c-0.15,0-0.38-0.19-0.63-1.13"/>
	<path class="st5" d="M39.68,60.39c0.23,1.25,0.54,2.92,0.89,4.89c0.92,5.16,0.94,5.77,0.6,6.31c-1.76,2.73-12.78,0.01-14.8-0.57
		c0.59-0.57,1.2-2.23,1.4-2.71c1.01-2.39,1.19-4.28-1.4-6.82"/>
	<path class="st5" d="M28.44,71.24"/>
	<path class="st5" d="M41.36,70.33l0.13,16.56l1.3,20.53c-0.35,0-2.14,0.12-2.72,0.13h-8.72l0.04-3.22l2.15-26.12l-8.89,28.71
		c-0.45-0.03-1.09-0.1-1.86-0.25c-1.92-0.37-3.96-1.43-5.23-2.08l-3.73-2.27l13.37-31.09"/>
</g>
</svg>
